<svg width="21" height="16" viewBox="0 0 21 16" fill="none" xmlns="http://www.w3.org/2000/svg">
<path d="M9.38672 9.55078C9.41276 9.60286 9.41276 9.74609 9.38672 9.98047C9.36068 10.2018 9.3151 10.4427 9.25 10.7031C9.19792 10.9635 9.13932 11.2109 9.07422 11.4453C9.02214 11.6667 8.98307 11.7969 8.95703 11.8359C8.89193 11.8359 8.82031 11.8359 8.74219 11.8359C8.67708 11.8229 8.61198 11.8164 8.54688 11.8164C8.48177 11.8164 8.41016 11.8099 8.33203 11.7969C8.29297 12.3438 8.2474 12.8581 8.19531 13.3398C8.14323 13.8086 8.09115 14.2122 8.03906 14.5508C7.98698 14.8893 7.94141 15.1562 7.90234 15.3516C7.86328 15.5599 7.82422 15.6641 7.78516 15.6641C7.68099 15.6901 7.5638 15.6445 7.43359 15.5273C7.31641 15.4232 7.19922 15.293 7.08203 15.1367C6.96484 14.9805 6.86068 14.8177 6.76953 14.6484C6.67839 14.4661 6.6263 14.3099 6.61328 14.1797C6.60026 13.9193 6.58724 13.6458 6.57422 13.3594C6.57422 13.0599 6.56771 12.7865 6.55469 12.5391C6.54167 12.2526 6.53516 11.9661 6.53516 11.6797C6.28776 11.6536 6.04688 11.6341 5.8125 11.6211C5.57812 11.5951 5.34375 11.569 5.10938 11.543C4.99219 11.5169 4.875 11.5039 4.75781 11.5039C4.64062 11.4909 4.52995 11.4714 4.42578 11.4453C4.39974 12.0443 4.3737 12.5977 4.34766 13.1055C4.32161 13.6133 4.28906 14.056 4.25 14.4336C4.22396 14.8112 4.19141 15.1042 4.15234 15.3125C4.1263 15.5339 4.09375 15.651 4.05469 15.6641C3.95052 15.6771 3.82682 15.6315 3.68359 15.5273C3.54036 15.4232 3.40365 15.293 3.27344 15.1367C3.15625 14.9805 3.04557 14.8177 2.94141 14.6484C2.85026 14.4792 2.79818 14.3294 2.78516 14.1992C2.75911 13.8607 2.73307 13.5156 2.70703 13.1641C2.68099 12.7995 2.65495 12.4674 2.62891 12.168C2.60286 11.8164 2.57682 11.4714 2.55078 11.1328C2.44661 11.1198 2.34245 11.1003 2.23828 11.0742C2.14714 11.0482 2.04948 11.0286 1.94531 11.0156C1.85417 11.0026 1.76953 10.9831 1.69141 10.957C1.63932 10.931 1.56771 10.8789 1.47656 10.8008C1.38542 10.7096 1.29427 10.612 1.20312 10.5078C1.11198 10.4036 1.03385 10.306 0.96875 10.2148C0.903646 10.1107 0.871094 10.0326 0.871094 9.98047C0.871094 9.95443 1.01432 9.92188 1.30078 9.88281C1.60026 9.84375 1.99089 9.8112 2.47266 9.78516C2.42057 9.02995 2.36849 8.26172 2.31641 7.48047C2.27734 6.6862 2.24479 5.95052 2.21875 5.27344C2.19271 4.58333 2.17969 3.98438 2.17969 3.47656C2.17969 2.95573 2.19922 2.59766 2.23828 2.40234C2.29036 2.12891 2.41406 1.86849 2.60938 1.62109C2.81771 1.36068 3.03906 1.13281 3.27344 0.9375C3.50781 0.742188 3.72917 0.592448 3.9375 0.488281C4.14583 0.384115 4.28255 0.351562 4.34766 0.390625C4.38672 0.429688 4.41927 0.585938 4.44531 0.859375C4.48438 1.13281 4.51042 1.4974 4.52344 1.95312C4.54948 2.40885 4.5625 2.9362 4.5625 3.53516C4.5625 4.13411 4.5625 4.77214 4.5625 5.44922C4.5625 6.11328 4.54948 6.8099 4.52344 7.53906C4.51042 8.25521 4.4974 8.96484 4.48438 9.66797C4.82292 9.64193 5.15495 9.6224 5.48047 9.60938C5.81901 9.59635 6.15104 9.57682 6.47656 9.55078C6.46354 8.80859 6.45052 8.05339 6.4375 7.28516C6.4375 6.51693 6.4375 5.80078 6.4375 5.13672C6.4375 4.47266 6.45052 3.89323 6.47656 3.39844C6.5026 2.90365 6.53516 2.55859 6.57422 2.36328C6.63932 2.08984 6.77604 1.82943 6.98438 1.58203C7.20573 1.33464 7.43359 1.11979 7.66797 0.9375C7.91536 0.742188 8.14323 0.598958 8.35156 0.507812C8.57292 0.416667 8.71615 0.397135 8.78125 0.449219C8.84635 0.488281 8.88542 0.794271 8.89844 1.36719C8.91146 1.92708 8.89844 2.63672 8.85938 3.49609C8.83333 4.35547 8.78776 5.31901 8.72266 6.38672C8.67057 7.44141 8.60547 8.48307 8.52734 9.51172C9.04818 9.51172 9.33464 9.52474 9.38672 9.55078ZM12.0625 11.2109C12.1016 11.3151 12.1211 11.4518 12.1211 11.6211C12.1211 11.7773 12.1016 11.9466 12.0625 12.1289C12.0234 12.2982 11.9714 12.4674 11.9062 12.6367C11.8542 12.793 11.7956 12.9232 11.7305 13.0273C11.6784 13.1055 11.6068 13.1706 11.5156 13.2227C11.4245 13.2747 11.3268 13.3138 11.2227 13.3398C11.1185 13.3529 11.0208 13.3594 10.9297 13.3594C10.8385 13.3594 10.7669 13.3594 10.7148 13.3594C10.6367 13.3464 10.5521 13.2878 10.4609 13.1836C10.3828 13.0794 10.3112 12.9557 10.2461 12.8125C10.194 12.6562 10.1549 12.4935 10.1289 12.3242C10.1029 12.1419 10.1094 11.9727 10.1484 11.8164C10.1875 11.6602 10.2982 11.5234 10.4805 11.4062C10.6628 11.2891 10.8581 11.1979 11.0664 11.1328C11.2878 11.0677 11.4961 11.0417 11.6914 11.0547C11.8867 11.0547 12.0104 11.1068 12.0625 11.2109ZM17.082 7.83203C17.1992 8.06641 17.3685 8.41797 17.5898 8.88672C17.8112 9.35547 18.0521 9.8763 18.3125 10.4492C18.5859 11.0091 18.8529 11.5885 19.1133 12.1875C19.3867 12.7734 19.6276 13.3203 19.8359 13.8281C20.0443 14.3229 20.207 14.7396 20.3242 15.0781C20.4414 15.4167 20.4805 15.6055 20.4414 15.6445C20.3633 15.7096 20.2461 15.7422 20.0898 15.7422C19.9466 15.7422 19.7969 15.7227 19.6406 15.6836C19.4974 15.6445 19.3542 15.5924 19.2109 15.5273C19.0807 15.4622 18.9896 15.3906 18.9375 15.3125C18.4167 14.5312 17.9544 13.8151 17.5508 13.1641C17.1471 12.513 16.7956 11.9466 16.4961 11.4648C16.1576 10.918 15.8581 10.4167 15.5977 9.96094C15.5065 10.1042 15.4089 10.2474 15.3047 10.3906C15.2135 10.5208 15.1224 10.6445 15.0312 10.7617C14.9922 11.4258 14.9531 12.0508 14.9141 12.6367C14.875 13.2227 14.8359 13.737 14.7969 14.1797C14.7578 14.6224 14.7122 14.9674 14.6602 15.2148C14.6211 15.4753 14.582 15.6055 14.543 15.6055C14.4388 15.6315 14.3151 15.5924 14.1719 15.4883C14.0417 15.3841 13.9115 15.2539 13.7812 15.0977C13.6641 14.9414 13.5599 14.7786 13.4688 14.6094C13.3776 14.4271 13.319 14.2708 13.293 14.1406C13.2148 12.8385 13.1497 11.6732 13.0977 10.6445C13.0456 9.61589 13.0065 8.70443 12.9805 7.91016C12.9544 7.11589 12.9349 6.42578 12.9219 5.83984C12.9089 5.25391 12.9023 4.7526 12.9023 4.33594C12.9023 3.35938 12.9349 2.6888 13 2.32422C13.0521 2.05078 13.1823 1.79036 13.3906 1.54297C13.599 1.28255 13.8203 1.0612 14.0547 0.878906C14.3021 0.683594 14.5299 0.540365 14.7383 0.449219C14.9466 0.345052 15.0833 0.3125 15.1484 0.351562C15.2005 0.390625 15.2396 0.638021 15.2656 1.09375C15.2917 1.53646 15.2982 2.10286 15.2852 2.79297C15.2721 3.48307 15.2526 4.25781 15.2266 5.11719C15.2005 5.96354 15.168 6.81641 15.1289 7.67578C15.5846 6.79036 16.0469 5.91797 16.5156 5.05859C16.9974 4.19922 17.4401 3.43099 17.8438 2.75391C18.2474 2.07682 18.5924 1.52995 18.8789 1.11328C19.1654 0.683594 19.3477 0.46875 19.4258 0.46875C19.5039 0.46875 19.6016 0.553385 19.7188 0.722656C19.8359 0.878906 19.9401 1.08724 20.0312 1.34766C20.1354 1.60807 20.207 1.88802 20.2461 2.1875C20.2852 2.48698 20.2591 2.77344 20.168 3.04688C20.1159 3.20312 19.9922 3.45052 19.7969 3.78906C19.6016 4.11458 19.3607 4.49219 19.0742 4.92188C18.7878 5.35156 18.4688 5.82031 18.1172 6.32812C17.7786 6.82292 17.4336 7.32422 17.082 7.83203Z" fill="#B57FE8"/>
</svg>
